<?xml version="1.0" encoding="UTF-8"?>
<svg width="512" height="512" viewBox="0 0 512 512" fill="none" xmlns="http://www.w3.org/2000/svg">
  <circle cx="256" cy="256" r="240" fill="#FF5722"/>
  <path d="M256 16C123.452 16 16 123.452 16 256C16 388.548 123.452 496 256 496C388.548 496 496 388.548 496 256C496 123.452 388.548 16 256 16ZM408.741 408.741C375.673 441.809 334.571 463.126 290.333 471.126C246.095 479.126 200.571 473.367 159.619 454.539C118.667 435.711 84.1905 404.711 60.5714 365.539C36.9524 326.367 25.1429 281.126 26.4762 235.539C27.8095 189.952 42.2857 145.539 68.5714 108.741C94.8571 71.9428 131.81 44.5714 173.905 30.2857C215.999 16 261.333 15.6666 303.619 29.3333C345.905 43 382.476 69.9428 408.741 106.741C441.809 139.809 463.126 180.911 471.126 225.149C479.126 269.387 473.367 314.911 454.539 355.863C435.711 396.815 404.711 431.292 365.539 454.911C326.367 478.53 281.126 490.339 235.539 489.006C189.952 487.673 145.539 473.196 108.741 446.911C71.9428 420.625 44.5714 383.673 30.2857 341.578C16 299.483 15.6666 254.149 29.3333 211.863C43 169.578 69.9428 133.006 106.741 106.741" stroke="black" stroke-width="2" stroke-linecap="round" stroke-linejoin="round"/>
  <path d="M256 16V496" stroke="black" stroke-width="4" stroke-linecap="round" stroke-linejoin="round"/>
  <path d="M496 256H16" stroke="black" stroke-width="4" stroke-linecap="round" stroke-linejoin="round"/>
  <path d="M408.741 106.741C342.476 173.006 173.905 173.006 106.741 106.741" stroke="black" stroke-width="4" stroke-linecap="round" stroke-linejoin="round"/>
  <path d="M408.741 408.741C342.476 342.476 173.905 342.476 106.741 408.741" stroke="black" stroke-width="4" stroke-linecap="round" stroke-linejoin="round"/>
</svg>
