<?xml version="1.0" encoding="UTF-8"?>
<svg width="400" height="300" viewBox="0 0 400 300" fill="none" xmlns="http://www.w3.org/2000/svg">
  <!-- Measuring Tape -->
  <path d="M50 150H350" stroke="#000000" stroke-width="4"/>
  <path d="M50 140V160" stroke="#000000" stroke-width="4"/>
  <path d="M350 140V160" stroke="#000000" stroke-width="4"/>
  
  <!-- Measurement Ticks -->
  <path d="M100 145V155" stroke="#000000" stroke-width="2"/>
  <path d="M150 145V155" stroke="#000000" stroke-width="2"/>
  <path d="M200 140V160" stroke="#000000" stroke-width="2"/>
  <path d="M250 145V155" stroke="#000000" stroke-width="2"/>
  <path d="M300 145V155" stroke="#000000" stroke-width="2"/>
  
  <!-- Person Silhouette -->
  <path d="M200 140V50" stroke="#FF5722" stroke-width="3"/>
  <circle cx="200" cy="40" r="15" fill="#FF5722"/>
  <path d="M200 80L170 110" stroke="#FF5722" stroke-width="3"/>
  <path d="M200 80L230 110" stroke="#FF5722" stroke-width="3"/>
  <path d="M200 140L180 180" stroke="#FF5722" stroke-width="3"/>
  <path d="M200 140L220 180" stroke="#FF5722" stroke-width="3"/>
  
  <!-- Vertical Jump Indicator -->
  <path d="M250 140V80" stroke="#2196F3" stroke-width="2" stroke-dasharray="5 5"/>
  <path d="M240 80H260" stroke="#2196F3" stroke-width="2"/>
  <path d="M245 85L255 75" stroke="#2196F3" stroke-width="2"/>
  <path d="M245 75L255 85" stroke="#2196F3" stroke-width="2"/>
  
  <!-- Calculator Elements -->
  <rect x="280" y="200" width="80" height="80" rx="5" fill="#F5F5F5" stroke="#000000"/>
  <path d="M290 220H350" stroke="#000000" stroke-width="2"/>
  <path d="M290 240H350" stroke="#000000" stroke-width="2"/>
  <path d="M290 260H350" stroke="#000000" stroke-width="2"/>
  <circle cx="320" cy="230" r="5" fill="#FF5722"/>
  <circle cx="320" cy="250" r="5" fill="#FF5722"/>
  <circle cx="320" cy="270" r="5" fill="#FF5722"/>
  
  <!-- Basketball -->
  <circle cx="100" cy="220" r="30" fill="#FF5722"/>
  <path d="M100 190V250" stroke="#000000" stroke-width="2"/>
  <path d="M70 220H130" stroke="#000000" stroke-width="2"/>
  <path d="M80 200C80 200 90 210 100 210C110 210 120 200 120 200" stroke="#000000" stroke-width="2"/>
  <path d="M80 240C80 240 90 230 100 230C110 230 120 240 120 240" stroke="#000000" stroke-width="2"/>
  
  <!-- Rim Height Indicator -->
  <path d="M150 50H170" stroke="#000000" stroke-width="2"/>
  <path d="M160 50V150" stroke="#000000" stroke-width="2" stroke-dasharray="5 5"/>
  <text x="175" y="55" font-family="Arial" font-size="12" fill="#000000">10 ft</text>
</svg>
