<?xml version="1.0" encoding="UTF-8"?>
<svg width="400" height="300" viewBox="0 0 400 300" fill="none" xmlns="http://www.w3.org/2000/svg">
  <!-- Basketball Hoop -->
  <rect x="300" y="50" width="60" height="40" fill="#FFFFFF" stroke="#000000" stroke-width="2"/>
  <ellipse cx="330" cy="90" rx="15" ry="5" fill="none" stroke="#FF5722" stroke-width="3"/>
  <line x1="315" y1="90" x2="345" y2="90" stroke="#FF5722" stroke-width="3"/>
  <line x1="330" y1="90" x2="330" y2="150" stroke="#000000" stroke-width="2"/>
  
  <!-- Person Reaching for Rim -->
  <path d="M200 250C200 250 220 230 220 200C220 170 210 160 210 140C210 120 230 110 250 110C270 110 290 120 290 140C290 160 280 170 280 200C280 230 300 250 300 250" stroke="#000000" stroke-width="3"/>
  <circle cx="250" cy="80" r="30" fill="#000000"/>
  <path d="M220 140C220 140 200 120 180 100" stroke="#000000" stroke-width="3"/>
  <path d="M280 140C280 140 300 110 330 90" stroke="#000000" stroke-width="3"/>
  <path d="M210 170L190 220" stroke="#000000" stroke-width="3"/>
  <path d="M290 170L310 220" stroke="#000000" stroke-width="3"/>
  
  <!-- Target/Goal Indicator -->
  <circle cx="330" cy="90" r="20" fill="none" stroke="#2196F3" stroke-width="2" stroke-dasharray="5 5"/>
  <path d="M320 80L340 100" stroke="#2196F3" stroke-width="2"/>
  <path d="M340 80L320 100" stroke="#2196F3" stroke-width="2"/>
  
  <!-- Motivational Elements -->
  <path d="M50 50L100 100" stroke="#FF5722" stroke-width="3"/>
  <path d="M100 50L50 100" stroke="#FF5722" stroke-width="3"/>
  <circle cx="75" cy="75" r="40" fill="none" stroke="#FF5722" stroke-width="3"/>
  
  <path d="M50 150H150" stroke="#FF5722" stroke-width="3"/>
  <path d="M50 170H150" stroke="#FF5722" stroke-width="3"/>
  <path d="M50 190H150" stroke="#FF5722" stroke-width="3"/>
  
  <!-- Upward Arrow -->
  <path d="M75 250V150" stroke="#2196F3" stroke-width="3"/>
  <path d="M50 175L75 150L100 175" stroke="#2196F3" stroke-width="3"/>
</svg>
