<?xml version="1.0" standalone="no"?>
<!DOCTYPE svg PUBLIC "-//W3C//DTD SVG 20010904//EN"
 "http://www.w3.org/TR/2001/REC-SVG-20010904/DTD/svg10.dtd">
<svg version="1.0" xmlns="http://www.w3.org/2000/svg"
 width="225.000000pt" height="225.000000pt" viewBox="0 0 225.000000 225.000000"
 preserveAspectRatio="xMidYMid meet">

<g transform="translate(0.000000,225.000000) scale(0.100000,-0.100000)"
fill="#000000" stroke="none">
<path d="M705 2048 c-43 -24 -65 -59 -76 -123 -11 -60 -11 -69 12 -126 16 -40
36 -71 59 -90 142 -116 207 -167 238 -188 l35 -23 74 74 73 73 -60 60 -60 59
0 -30 c0 -17 7 -39 15 -50 43 -57 -3 -54 -132 8 -54 25 -101 58 -138 93 l-56
55 54 -3 c55 -2 102 18 114 49 4 10 -20 42 -68 92 l-74 77 76 -74 c70 -67 78
-71 84 -52 9 30 -12 87 -42 111 -29 22 -95 27 -128 8z"/>
<path d="M1020 1805 l-24 -25 64 -65 64 -65 41 38 40 37 -38 -41 c-20 -22 -34
-43 -31 -47 12 -11 51 -8 62 6 13 15 9 72 -6 90 -7 8 -9 16 -6 19 9 9 -23 65
-41 72 -9 3 -36 6 -59 6 -33 0 -48 -6 -66 -25z"/>
<path d="M1047 1562 c-43 -43 -77 -84 -77 -92 0 -8 20 -64 45 -124 25 -59 45
-118 45 -130 0 -12 15 -36 33 -54 l33 -32 82 83 82 82 0 89 0 89 -83 83 -84
83 -76 -77z"/>
<path d="M1207 1202 l-77 -77 128 -128 128 -127 38 39 38 39 -33 22 c-19 13
-42 38 -52 57 -17 35 -11 36 26 5 9 -8 17 -11 17 -7 0 5 -8 17 -17 28 -17 19
-17 20 4 8 26 -13 41 -15 28 -2 -17 16 -85 51 -99 51 -7 0 -21 9 -32 21 -15
17 -18 33 -15 85 1 35 1 64 -1 64 -2 0 -38 -35 -81 -78z"/>
<path d="M1055 1149 c-4 -19 -18 -47 -31 -62 -13 -16 -24 -40 -24 -55 0 -25 3
-23 63 33 l62 60 -64 -66 c-52 -55 -61 -70 -53 -85 8 -17 -1 -190 -12 -220 -2
-6 22 -37 54 -69 l59 -58 20 34 c11 19 31 36 43 39 19 5 24 15 30 54 9 66 19
74 58 46 l32 -23 44 44 44 44 -159 159 -159 159 -7 -34z"/>
<path d="M625 904 c-149 -74 -160 -81 -160 -99 0 -16 10 -18 85 -19 73 -1 90
-4 114 -23 34 -27 46 -29 46 -8 0 12 4 13 19 6 14 -8 24 -4 46 19 16 17 23 30
16 30 -23 0 -61 48 -61 78 0 25 -16 53 -29 52 -4 -1 -37 -17 -76 -36z"/>
<path d="M1381 856 l-83 -83 31 -23 31 -22 36 21 c46 28 56 20 33 -26 -10 -21
-19 -53 -19 -73 0 -43 -21 -124 -43 -167 -10 -19 -34 -40 -62 -54 -25 -12 -45
-27 -45 -33 0 -12 43 -76 51 -76 4 0 28 -29 54 -65 40 -54 53 -65 77 -65 54 0
30 57 -66 160 l-71 75 69 -65 68 -65 -7 39 c-4 24 -2 50 6 69 10 24 10 32 1
35 -9 3 5 38 41 105 30 56 60 120 67 142 7 22 22 55 33 74 20 33 20 34 2 67
-14 27 -104 114 -117 114 -2 0 -41 -38 -87 -84z m94 -76 c44 -44 77 -80 75
-80 -3 0 -41 36 -85 80 -44 44 -77 80 -75 80 3 0 41 -36 85 -80z"/>
<path d="M780 775 c-13 -14 -22 -26 -19 -28 2 -2 38 -25 79 -52 41 -26 91 -58
110 -71 38 -25 83 -44 105 -44 16 0 47 29 43 41 -2 4 -33 39 -71 77 -63 66
-71 71 -138 86 -89 20 -81 21 -109 -9z"/>
<path d="M963 93 c-7 -2 -13 -16 -13 -29 0 -14 4 -23 10 -19 5 3 6 13 3 22 -5
12 -2 15 10 10 9 -3 17 -2 17 4 0 6 5 7 12 3 7 -4 8 -3 4 4 -7 12 -22 14 -43
5z"/>
<path d="M1030 66 c0 -8 4 -17 9 -20 5 -4 7 3 4 14 -6 23 -13 26 -13 6z"/>
<path d="M1186 73 c-4 -5 -13 -8 -18 -8 -6 0 -13 -6 -15 -12 -6 -16 13 -17 23
-2 4 8 9 7 15 -2 6 -10 9 -8 9 9 0 24 -2 26 -14 15z"/>
<path d="M987 44 c-10 -13 -14 -24 -9 -24 13 0 35 27 30 39 -1 5 -11 -2 -21
-15z"/>
<path d="M1071 54 c0 -11 3 -14 6 -6 3 7 2 16 -1 19 -3 4 -6 -2 -5 -13z"/>
<path d="M1095 61 c-6 -11 13 -26 22 -17 4 3 1 6 -6 6 -7 0 -9 5 -6 10 3 6 4
10 1 10 -3 0 -7 -4 -11 -9z"/>
<path d="M1215 59 c-4 -6 -4 -13 -1 -16 3 -4 6 0 6 8 0 11 2 11 10 -1 8 -13
10 -12 10 3 0 19 -15 23 -25 6z"/>
<path d="M1280 55 c0 -8 4 -15 8 -15 5 0 9 7 9 15 0 8 -4 15 -9 15 -4 0 -8 -7
-8 -15z"/>
</g>
</svg>
