<?xml version="1.0" encoding="UTF-8"?>
<svg width="500" height="400" viewBox="0 0 500 400" fill="none" xmlns="http://www.w3.org/2000/svg">
  <!-- Basketball Hoop -->
  <rect x="400" y="100" width="60" height="40" fill="#FFFFFF" stroke="#000000" stroke-width="2"/>
  <ellipse cx="430" cy="140" rx="15" ry="5" fill="none" stroke="#FF5722" stroke-width="3"/>
  <line x1="415" y1="140" x2="445" y2="140" stroke="#FF5722" stroke-width="3"/>
  <line x1="430" y1="140" x2="430" y2="200" stroke="#000000" stroke-width="2"/>
  
  <!-- Basketball Player Silhouette -->
  <path d="M200 350C200 350 220 330 220 300C220 270 210 260 210 240C210 220 230 210 250 210C270 210 290 220 290 240C290 260 280 270 280 300C280 330 300 350 300 350" stroke="#000000" stroke-width="3"/>
  <circle cx="250" cy="180" r="30" fill="#000000"/>
  <path d="M220 240C220 240 200 260 180 270C160 280 150 290 150 290" stroke="#000000" stroke-width="3"/>
  <path d="M280 240C280 240 300 260 320 270C340 280 350 290 350 290" stroke="#000000" stroke-width="3"/>
  <path d="M210 270L190 320" stroke="#000000" stroke-width="3"/>
  <path d="M290 270L310 320" stroke="#000000" stroke-width="3"/>
  
  <!-- Basketball -->
  <circle cx="350" cy="200" r="30" fill="#FF5722"/>
  <path d="M350 170V230" stroke="#000000" stroke-width="2"/>
  <path d="M320 200H380" stroke="#000000" stroke-width="2"/>
  <path d="M330 180C330 180 340 190 350 190C360 190 370 180 370 180" stroke="#000000" stroke-width="2"/>
  <path d="M330 220C330 220 340 210 350 210C360 210 370 220 370 220" stroke="#000000" stroke-width="2"/>
  
  <!-- Motion Lines -->
  <path d="M320 180C320 180 310 170 300 160" stroke="#000000" stroke-width="1" stroke-dasharray="5 5"/>
  <path d="M330 170C330 170 320 150 310 130" stroke="#000000" stroke-width="1" stroke-dasharray="5 5"/>
  <path d="M350 170C350 170 350 150 350 130" stroke="#000000" stroke-width="1" stroke-dasharray="5 5"/>
  
  <!-- Text Elements -->
  <path d="M100 100C100 100 120 80 150 80C180 80 200 100 200 100" stroke="#FF5722" stroke-width="5" stroke-linecap="round"/>
  <path d="M100 120C100 120 120 140 150 140C180 140 200 120 200 120" stroke="#FF5722" stroke-width="5" stroke-linecap="round"/>
</svg>
