<?xml version="1.0" encoding="UTF-8"?>
<svg width="200" height="50" viewBox="0 0 200 50" fill="none" xmlns="http://www.w3.org/2000/svg">
  <circle cx="25" cy="25" r="23" fill="#FF5722"/>
  <path d="M25 2C12.85 2 3 11.85 3 24C3 36.15 12.85 46 25 46C37.15 46 47 36.15 47 24C47 11.85 37.15 2 25 2ZM39.95 39.95C36.75 43.15 32.65 45.25 28.25 46.05C23.85 46.85 19.25 46.3 15.15 44.45C11.05 42.6 7.65 39.6 5.3 35.7C2.95 31.8 1.8 27.25 1.95 22.7C2.1 18.15 3.55 13.7 6.15 10C8.75 6.3 12.35 3.5 16.55 2.1C20.75 0.7 25.25 0.65 29.5 2C33.75 3.35 37.4 5.95 40 9.65C43.2 12.85 45.3 16.95 46.1 21.35C46.9 25.75 46.35 30.35 44.5 34.45C42.65 38.55 39.65 41.95 35.75 44.3C31.85 46.65 27.3 47.8 22.75 47.65C18.2 47.5 13.75 46.05 10.05 43.45C6.35 40.85 3.55 37.25 2.15 33.05C0.75 28.85 0.7 24.35 2.05 20.1C3.4 15.85 6 12.2 9.7 9.6" stroke="black" stroke-width="0.5" stroke-linecap="round" stroke-linejoin="round"/>
  <path d="M25 2V46" stroke="black" stroke-width="1" stroke-linecap="round" stroke-linejoin="round"/>
  <path d="M47 24H3" stroke="black" stroke-width="1" stroke-linecap="round" stroke-linejoin="round"/>
  <path d="M39.95 9.6C33.4 16.15 16.55 16.15 9.7 9.6" stroke="black" stroke-width="1" stroke-linecap="round" stroke-linejoin="round"/>
  <path d="M39.95 39.95C33.4 33.4 16.55 33.4 9.7 39.95" stroke="black" stroke-width="1" stroke-linecap="round" stroke-linejoin="round"/>
  
  <!-- Text -->
  <path d="M60 15H65.5C67.1667 15 68.5 15.3333 69.5 16C70.5 16.6667 71 17.6667 71 19C71 19.8 70.7667 20.5 70.3 21.1C69.8333 21.7 69.2 22.1333 68.4 22.4C69.4 22.6 70.2 23.0333 70.8 23.7C71.4 24.3667 71.7 25.2 71.7 26.2C71.7 27.6667 71.1667 28.8 70.1 29.6C69.0333 30.4 67.6 30.8 65.8 30.8H60V15ZM65 21.4C65.9333 21.4 66.6333 21.2333 67.1 20.9C67.5667 20.5667 67.8 20.0667 67.8 19.4C67.8 18.7333 67.5667 18.2333 67.1 17.9C66.6333 17.5667 65.9333 17.4 65 17.4H63.2V21.4H65ZM65.4 28.4C66.4 28.4 67.1333 28.2333 67.6 27.9C68.0667 27.5667 68.3 27.0333 68.3 26.3C68.3 25.5667 68.0667 25.0333 67.6 24.7C67.1333 24.3667 66.4 24.2 65.4 24.2H63.2V28.4H65.4Z" fill="#FF5722"/>
  <path d="M74.1641 15H77.3641V28.4H84.0641V30.8H74.1641V15Z" fill="#FF5722"/>
  <path d="M86.0781 15H89.2781V30.8H86.0781V15Z" fill="#FF5722"/>
  <path d="M92.6719 15H95.8719V28.4H102.572V30.8H92.6719V15Z" fill="#FF5722"/>
  
  <path d="M60 35H63.2V42.8H63.3L68.9 35H72.7L66.8 42.9L73 50.8H69.1L63.3 43.1H63.2V50.8H60V35Z" fill="#333333"/>
  <path d="M80.0859 35H83.2859V50.8H80.0859V44.2H74.5859V50.8H71.3859V35H74.5859V41.8H80.0859V35Z" fill="#333333"/>
  <path d="M85.7422 35H88.9422V50.8H85.7422V35Z" fill="#333333"/>
  <path d="M97.9141 35H101.114V50.8H98.2141L92.3141 40.2H92.2141V50.8H89.0141V35H91.9141L97.8141 45.6H97.9141V35Z" fill="#333333"/>
  <path d="M110.266 35H113.466V48.4H119.766V50.8H110.266V35Z" fill="#333333"/>
  <path d="M128.68 35H131.88V50.8H128.68V35Z" fill="#333333"/>
  <path d="M134.273 35H137.473V48.4H143.773V50.8H134.273V35Z" fill="#333333"/>
  <path d="M152.688 35H155.888V50.8H152.688V44.2H147.188V50.8H143.988V35H147.188V41.8H152.688V35Z" fill="#333333"/>
  <path d="M158.344 35H168.144V37.4H161.544V41.5H167.544V43.9H161.544V48.4H168.344V50.8H158.344V35Z" fill="#333333"/>
  <path d="M170.609 35H173.809V48.4H180.109V50.8H170.609V35Z" fill="#333333"/>
  <path d="M182.023 35H191.823V37.4H185.223V41.5H191.223V43.9H185.223V48.4H192.023V50.8H182.023V35Z" fill="#333333"/>
  <path d="M194.289 35H197.489V50.8H194.289V35Z" fill="#333333"/>
</svg>
