<?xml version="1.0" encoding="UTF-8"?>
<svg width="400" height="300" viewBox="0 0 400 300" fill="none" xmlns="http://www.w3.org/2000/svg">
  <!-- Basketball Player Training -->
  <path d="M200 250C200 250 220 230 220 200C220 170 210 160 210 140C210 120 230 110 250 110C270 110 290 120 290 140C290 160 280 170 280 200C280 230 300 250 300 250" stroke="#000000" stroke-width="3"/>
  <circle cx="250" cy="80" r="30" fill="#000000"/>
  
  <!-- Arms in Training Position -->
  <path d="M220 140C220 140 200 160 180 180" stroke="#000000" stroke-width="3"/>
  <path d="M280 140C280 140 300 160 320 180" stroke="#000000" stroke-width="3"/>
  
  <!-- Legs in Training Position -->
  <path d="M210 170L190 220" stroke="#000000" stroke-width="3"/>
  <path d="M290 170L310 220" stroke="#000000" stroke-width="3"/>
  
  <!-- Training Equipment -->
  <rect x="150" y="180" width="20" height="40" fill="#FF5722"/>
  <rect x="330" y="180" width="20" height="40" fill="#FF5722"/>
  
  <!-- Weights -->
  <circle cx="160" cy="170" r="15" fill="#666666"/>
  <circle cx="340" cy="170" r="15" fill="#666666"/>
  
  <!-- Training Lines -->
  <path d="M50 50L100 100" stroke="#2196F3" stroke-width="2" stroke-dasharray="5 5"/>
  <path d="M100 50L50 100" stroke="#2196F3" stroke-width="2" stroke-dasharray="5 5"/>
  
  <path d="M350 50L400 100" stroke="#2196F3" stroke-width="2" stroke-dasharray="5 5"/>
  <path d="M400 50L350 100" stroke="#2196F3" stroke-width="2" stroke-dasharray="5 5"/>
  
  <!-- Training Metrics -->
  <rect x="50" y="120" width="100" height="30" rx="5" fill="#F5F5F5" stroke="#000000"/>
  <line x1="60" y1="135" x2="140" y2="135" stroke="#FF5722" stroke-width="2"/>
  <circle cx="100" cy="135" r="5" fill="#FF5722"/>
  
  <rect x="350" y="120" width="100" height="30" rx="5" transform="rotate(180 350 120)" fill="#F5F5F5" stroke="#000000"/>
  <line x1="260" y1="105" x2="340" y2="105" stroke="#FF5722" stroke-width="2"/>
  <circle cx="300" cy="105" r="5" fill="#FF5722"/>
  
  <!-- Floor Line -->
  <line x1="50" y1="250" x2="350" y2="250" stroke="#000000" stroke-width="2"/>
  
  <!-- Training Icons -->
  <circle cx="75" cy="200" r="15" fill="#2196F3"/>
  <path d="M70 200H80" stroke="white" stroke-width="2"/>
  <path d="M75 195V205" stroke="white" stroke-width="2"/>
  
  <circle cx="325" cy="200" r="15" fill="#2196F3"/>
  <path d="M320 200H330" stroke="white" stroke-width="2"/>
  <path d="M325 195V205" stroke="white" stroke-width="2"/>
</svg>
